<svg width="487" height="103" viewBox="0 0 487 103" fill="none" xmlns="http://www.w3.org/2000/svg">
<path d="M0 5.14284C0 4.2857 0.571429 3.47618 1.71429 2.71427H81.4286C82.1905 2.99999 82.7143 3.5238 83 4.2857V16.2857C83 23.3333 82.9048 27.4286 82.7143 28.5714C82.5238 29.7143 81.7619 30.2857 80.4286 30.2857C79.6667 30.2857 79.0952 30.0476 78.7143 29.5714C78.3333 29.0952 77.9524 28.0476 77.5714 26.4286C77.2857 22.7143 75.4762 19.2381 72.1429 16C69.1905 12.8571 65.7619 10.7619 61.8571 9.71427C57.9524 8.66665 52.9524 7.99999 46.8571 7.71427H38.5714C37.0476 8.85713 36.1905 10.1905 36 11.7143C35.8095 13.2381 35.619 19.3333 35.4286 30V47.4286H37.8571C42.8095 46.9524 46.6667 45.9524 49.4286 44.4286C52.1905 42.9048 54.381 40.619 56 37.5714C57.5238 33.6667 58.2857 30.4762 58.2857 28C58.2857 25.8095 59.0476 24.7143 60.5714 24.7143C61.4286 24.7143 62.1429 25.0952 62.7143 25.8571C63.0952 26.2381 63.2857 33.8571 63.2857 48.7143C63.2857 51.3809 63.2857 54.3809 63.2857 57.7143C63.2857 61.0476 63.3333 63.1905 63.4286 64.1428C63.4286 67.5714 63.2857 69.7619 63 70.7143C62.7143 71.6667 61.9524 72.1428 60.7143 72.1428C59.0952 72.2381 58.2857 71.2857 58.2857 69.2857C58.2857 67.0952 57.6191 64.5714 56.2857 61.7143C53.5238 56.1905 47.7143 53.0952 38.8571 52.4286H35.4286V71.5714C35.5238 74.1428 35.5714 77.3333 35.5714 81.1428C35.6667 86.9524 35.8095 90.4286 36 91.5714C36.1905 92.7143 36.8571 93.8095 38 94.8571C38.2857 95.0476 38.4762 95.1905 38.5714 95.2857H45.5714C52.1429 95.2857 57.7619 94.5714 62.4286 93.1428C74.0476 89.0476 81.3333 82.9048 84.2857 74.7143C84.5714 72.4286 85.5238 71.2857 87.1429 71.2857C87.8095 71.2857 88.381 71.5714 88.8571 72.1428C89.3333 72.7143 89.6191 73.3809 89.7143 74.1428C89.5238 74.3333 88.7619 78.5238 87.4286 86.7143C86.0952 94.9048 85.1429 99.2857 84.5714 99.8571L84 100.429H1.71429C0.571429 99.8571 0 99.0476 0 98C0 96.1905 1.85714 95.2857 5.57143 95.2857C9.47619 95 11.6667 94.1905 12.1429 92.8571C12.619 92.0952 12.8571 78.3333 12.8571 51.5714C12.8571 24.8095 12.619 10.9524 12.1429 9.99999C11.5714 8.76189 9.38095 7.99999 5.57143 7.71427C1.85714 7.71427 0 6.85713 0 5.14284ZM17.8571 51.5714C17.8571 71.5714 17.8095 83.5714 17.7143 87.5714C17.619 91.5714 17.3333 94.0476 16.8571 95C16.7619 95.0952 16.7143 95.1905 16.7143 95.2857H31.8571C31.6667 94.7143 31.4762 94.0952 31.2857 93.4286L30.5714 91.5714V11.2857L31.2857 9.57142L31.8571 7.71427H16.7143C17 8.38094 17.1905 8.85713 17.2857 9.14284C17.381 9.42856 17.4762 11.0952 17.5714 14.1428C17.6667 17.1905 17.7619 21.2857 17.8571 26.4286C17.9524 31.5714 17.9524 39.9524 17.8571 51.5714ZM77.8571 14.1428V7.71427H70.2857C70.2857 7.90475 70.8095 8.33332 71.8571 8.99999C73 9.47618 74.2857 10.4286 75.7143 11.8571L77.8571 14.1428ZM58.2857 55V43.5714L56.2857 45.5714C55.1429 46.8095 53.9048 47.7619 52.5714 48.4286L50.5714 49.5714C51.2381 50.0476 52 50.4762 52.8571 50.8571C54.5714 52.0952 55.8571 52.9524 56.7143 53.4286L58.2857 55ZM81.4286 91.5714L82 87.7143C81.9048 87.7143 81.7143 87.9524 81.4286 88.4286C79.0476 90.5238 76.381 92.2857 73.4286 93.7143L71.2857 95L75.7143 95.2857H80.7143C80.7143 95.1905 80.7619 95 80.8571 94.7143C80.9524 94.4286 81.0476 93.9524 81.1429 93.2857C81.2381 92.619 81.3333 92.0476 81.4286 91.5714Z" fill="black"/>
<path d="M99.4286 93.7143H101.429C105.143 93.7143 107.381 93.0476 108.143 91.7143V90.5714C108.143 89.7143 108.143 88.6191 108.143 87.2857C108.143 85.9524 108.143 84.4762 108.143 82.8572C108.143 81.2381 108.19 79.381 108.286 77.2857C108.381 75.1905 108.381 73.1905 108.286 71.2857C108.286 68.3333 108.286 65.1905 108.286 61.8572C108.286 58.5238 108.238 55.7143 108.143 53.4286V50.1429C107.857 48.3334 107.19 47.1429 106.143 46.5714C105.095 46 102.952 45.5714 99.7143 45.2857H97.1429V42C97.1429 39.8095 97.2381 38.7143 97.4286 38.7143L98.8571 38.5714C99.8095 38.4762 101.143 38.381 102.857 38.2857C104.571 38.1905 106.333 38.0953 108.143 38C109.762 37.9048 111.476 37.8095 113.286 37.7143C115.095 37.6191 116.476 37.4762 117.429 37.2857C118.381 37.0953 118.905 37.0476 119 37.1429H119.429V42.8572C119.429 46.4762 119.476 48.2857 119.571 48.2857C119.667 48.2857 119.905 48.0476 120.286 47.5714C120.667 47.0953 121.238 46.381 122 45.4286C122.762 44.4762 123.667 43.6191 124.714 42.8572C125.762 42.0953 127.143 41.1905 128.857 40.1429C130.571 39.0953 132.381 38.3334 134.286 37.8572C136.19 37.381 138.619 37.1429 141.571 37.1429C152.429 37.5238 158.476 42.9048 159.714 53.2857C159.81 53.9524 159.857 60.5714 159.857 73.1429V85.4286C159.857 89.0476 159.952 91.1905 160.143 91.8572C160.333 92.5238 160.857 93 161.714 93.2857C163.714 93.5714 166.048 93.7143 168.714 93.7143H171V100.286H169.857L166.429 100.143C164.238 100.048 161.857 100 159.286 100C156.714 100 154.905 99.9524 153.857 99.8572C144.048 99.8572 138.714 100 137.857 100.286H136.714V93.7143H139C144.81 93.7143 147.714 92.9524 147.714 91.4286C147.81 91.2381 147.857 84.6667 147.857 71.7143C147.762 58.8572 147.667 52.0476 147.571 51.2857C147 48.6191 146.048 46.6191 144.714 45.2857C143.381 43.9524 142.238 43.1429 141.286 42.8572C140.333 42.5714 139.095 42.4762 137.571 42.5714C133.286 42.5714 129.524 44.1905 126.286 47.4286C123.714 50 122.095 52.6191 121.429 55.2857C120.762 57.9524 120.381 61.9048 120.286 67.1429V76.2857V84.8572C120.286 87.7143 120.333 89.6191 120.429 90.5714C120.524 91.5238 120.667 92.1429 120.857 92.4286C121.048 92.7143 121.476 93 122.143 93.2857C124.143 93.5714 126.476 93.7143 129.143 93.7143H131.429V100.286H130.286L127 100.143C124.714 100.048 122.286 100 119.714 100C117.143 100 115.333 99.9524 114.286 99.8572C104.476 99.8572 99.1429 100 98.2857 100.286H97.1429V93.7143H99.4286Z" fill="black"/>
<path d="M270.714 81.5714C270.714 82.1429 270.143 83.1905 269 84.7143C267.857 86.2381 266 88.0476 263.429 90.1429C260.857 92.2381 258 94.2381 254.857 96.1429C251.714 98.0476 247.714 99.6667 242.857 101C238 102.333 233.095 103 228.143 103C222.81 103 217.571 102.238 212.429 100.714C207.286 99.1905 202.429 96.8571 197.857 93.7143C193.286 90.5714 189.333 86.381 186 81.1429C182.667 75.9048 180.429 69.8571 179.286 63C178.81 60.9048 178.571 57.0952 178.571 51.5714C178.571 46.0476 178.81 42.2381 179.286 40.1429C181.381 29 186.095 19.9524 193.429 13C200.762 6.04761 210.19 1.85714 221.714 0.428567C222 0.428567 223.095 0.380948 225 0.28571C226.905 0.190472 228.381 0.142853 229.429 0.142853C234.571 0.428567 239.714 1.57142 244.857 3.57142C250 5.57142 253.905 6.61904 256.571 6.71428C258.286 6.71428 259.524 6.38095 260.286 5.71428C261.048 5.04761 261.476 4.28571 261.571 3.42857C261.667 2.57142 261.905 1.80952 262.286 1.14285C262.667 0.476186 263.333 0.0952335 264.286 -4.60446e-06C265.333 -4.60446e-06 266.19 0.571424 266.857 1.71428V31.5714L266.286 32.5714C265.048 33.2381 263.857 33.3333 262.714 32.8571C262.333 32.4762 261.857 31.3333 261.286 29.4286C260.714 27.5238 259.619 25.3809 258 23C254.857 18.619 250.667 14.619 245.429 11C240.19 7.38095 234.619 5.57142 228.714 5.57142H227.429C223.238 5.57142 219.333 7.38095 215.714 11C207.429 18.4286 203.286 32.1905 203.286 52.2857C203.286 60.5714 204.286 68.0476 206.286 74.7143C210.19 88.9048 218.381 96 230.857 96C243.048 96 254.286 91.2381 264.571 81.7143C266.19 80.0952 267.381 79.2857 268.143 79.2857C268.619 79.2857 269.143 79.4762 269.714 79.8571C270.286 80.2381 270.619 80.8095 270.714 81.5714ZM208.714 11C210.048 9.28571 210.571 8.42857 210.286 8.42857C208.095 9.19047 205.857 10.2857 203.571 11.7143C201.286 13.1429 198.762 15.0952 196 17.5714C193.238 20.0476 190.81 23.3333 188.714 27.4286C186.619 31.5238 185.143 36.0952 184.286 41.1429C183.81 44 183.571 47.4762 183.571 51.5714C183.571 55.6667 183.81 59.1429 184.286 62C185.238 67.2381 186.857 71.9524 189.143 76.1429C191.429 80.3333 193.857 83.5714 196.429 85.8571C199 88.1429 201.524 90.0476 204 91.5714C206.476 93.0952 208.524 94.1429 210.143 94.7143L212.571 95.4286C211.905 94.7619 211.286 94.0952 210.714 93.4286C204.524 87.4286 200.571 77.619 198.857 64C198.571 61.4286 198.429 57.1429 198.429 51.1429C198.429 45.1429 198.571 40.8571 198.857 38.2857C200.667 26.3809 203.952 17.2857 208.714 11ZM261.714 19.5714V11C261.333 11.1905 260.952 11.2857 260.571 11.2857C259.619 11.6667 258.524 11.8571 257.286 11.8571H255.143L257 13.8571C258.905 15.9524 259.952 17.1905 260.143 17.5714L261.714 19.5714Z" fill="black"/>
<path d="M280.143 69.7143C280.143 60.6667 283.238 52.8571 289.429 46.2857C295.619 39.7143 303.095 36.381 311.857 36.2857C320.429 36.2857 327.809 39.5238 334 46C340.19 52.4762 343.333 60.3333 343.429 69.5714C343.429 78.619 340.381 86.2381 334.286 92.4286C328.19 98.619 320.714 101.714 311.857 101.714C302.619 101.714 295.048 98.5238 289.143 92.1429C283.238 85.7619 280.238 78.2857 280.143 69.7143ZM311.857 96C323.476 96 329.286 88.2381 329.286 72.7143V68.1429V64.5714C329.286 62.4762 329.238 60.6667 329.143 59.1429C329.048 57.6191 328.714 55.8095 328.143 53.7143C327.571 51.6191 326.809 49.9048 325.857 48.5714C324.905 47.2381 323.429 45.9048 321.429 44.5714C319.429 43.2381 317.095 42.2857 314.429 41.7143C313.952 41.6191 313.19 41.5714 312.143 41.5714C309.286 41.5714 306.571 42.1429 304 43.2857C299.905 45.381 297.238 48.2857 296 52C294.762 55.7143 294.143 60.0952 294.143 65.1429V68C294.143 77.1429 295.048 83.5714 296.857 87.2857C299.905 93.0952 304.905 96 311.857 96Z" fill="black"/>
<path d="M401.286 29.5714C401.286 28.0476 401.286 26.1428 401.286 23.8571C401.286 21.5714 401.333 20 401.429 19.1428C401.429 14.8571 400.952 12.1905 400 11.1428C399.048 10.0952 396.619 9.47617 392.714 9.28569H390.143V5.99998C390.143 3.8095 390.238 2.71426 390.429 2.71426L391.857 2.57141C392.81 2.47617 394.19 2.38093 396 2.28569C397.81 2.19045 399.571 2.09522 401.286 1.99998C402.905 1.90474 404.667 1.8095 406.571 1.71426C408.476 1.61902 409.905 1.47617 410.857 1.28569C411.81 1.09522 412.333 1.0476 412.429 1.14283H412.857V44.5714C412.857 73.7143 412.905 88.4286 413 88.7143C413.286 90.619 413.952 91.8571 415 92.4286C416.048 93 418.19 93.4286 421.429 93.7143H424V100.286C423.81 100.286 420.19 100.524 413.143 101C406.095 101.476 402.333 101.762 401.857 101.857H400.857V94L399.714 95C394.19 99.5714 388 101.857 381.143 101.857C373.81 101.857 367.19 98.9524 361.286 93.1428C355.381 87.3333 352.429 79.4762 352.429 69.5714C352.429 60.0476 355.429 52.2857 361.429 46.2857C367.429 40.2857 374.429 37.2381 382.429 37.1428C389.571 37.1428 395.857 39.4762 401.286 44.1428V29.5714ZM400.857 51.4286C396.571 45.4286 391.19 42.4286 384.714 42.4286C380.048 42.4286 375.905 44.1428 372.286 47.5714C369.714 50.2381 368.095 53.2857 367.429 56.7143C366.762 60.1428 366.381 64.619 366.286 70.1428C366.286 75.4762 366.619 79.8095 367.286 83.1428C367.952 86.4762 369.619 89.3809 372.286 91.8571C375.143 95 378.857 96.5714 383.429 96.5714C390.19 96.5714 396 92.9047 400.857 85.5714V51.4286Z" fill="black"/>
<path d="M431 69.1428C431 63.9047 431.952 59.1428 433.857 54.8571C435.762 50.5714 438.143 47.0952 441 44.4286C443.857 41.7619 446.952 39.7619 450.286 38.4286C453.619 37.0952 456.762 36.3809 459.714 36.2857C464.762 36.2857 469.095 37.1428 472.714 38.8571C476.333 40.5714 479.095 42.9524 481 46C482.905 49.0476 484.238 52.0952 485 55.1428C485.762 58.1905 486.19 61.5714 486.286 65.2857C486.286 65.9524 485.952 66.619 485.286 67.2857H445V69.4286C445 83.5238 449.762 92.0952 459.286 95.1428C461.19 95.7143 463.286 96 465.571 96C469.571 96 473 94.4762 475.857 91.4286C477.476 89.8095 478.762 87.8095 479.714 85.4286L481.143 82C481.429 81.7143 482.19 81.5714 483.429 81.5714H483.857C485.476 81.5714 486.286 82.0476 486.286 83C486.286 83.3809 486.143 84 485.857 84.8571C484.048 90.0952 481.048 94.2381 476.857 97.2857C472.667 100.333 467.952 101.857 462.714 101.857C453.667 101.857 446.143 98.5714 440.143 92C434.143 85.4286 431.095 77.8095 431 69.1428ZM474.571 61C473.524 48.8095 469 42.3333 461 41.5714H460.714C459.952 41.5714 459.19 41.619 458.429 41.7143C457.667 41.8095 456.476 42.1905 454.857 42.8571C453.238 43.5238 451.857 44.5238 450.714 45.8571C449.571 47.1905 448.476 49.1428 447.429 51.7143C446.381 54.2857 445.619 57.4286 445.143 61.1428V62.1428H474.571V61Z" fill="black"/>
</svg>
