<svg width="32" height="32" viewBox="0 0 32 32" fill="none" xmlns="http://www.w3.org/2000/svg">
<path d="M0 7.51253C0 7.35584 0.106934 7.20785 0.320802 7.06857H15.2381C15.3807 7.1208 15.4787 7.21656 15.5322 7.35584V9.54952C15.5322 10.8379 15.5143 11.5865 15.4787 11.7954C15.4431 12.0044 15.3005 12.1088 15.051 12.1088C14.9084 12.1088 14.8014 12.0653 14.7302 11.9782C14.6589 11.8912 14.5876 11.6997 14.5163 11.4037C14.4628 10.7247 14.1242 10.0892 13.5004 9.49729C12.9479 8.92276 12.3063 8.53973 11.5756 8.34822C10.8449 8.15671 9.90922 8.03484 8.76859 7.9826H7.21805C6.93289 8.19153 6.77249 8.43527 6.73684 8.71383C6.7012 8.9924 6.66555 10.1066 6.62991 12.0566V15.2427H7.08438C8.01114 15.1556 8.73294 14.9728 9.24979 14.6942C9.76664 14.4157 10.1766 13.9978 10.4795 13.4407C10.7647 12.7269 10.9073 12.1436 10.9073 11.691C10.9073 11.2905 11.0498 11.0903 11.335 11.0903C11.4954 11.0903 11.6291 11.16 11.736 11.2992C11.8073 11.3689 11.8429 12.7617 11.8429 15.4777C11.8429 15.9652 11.8429 16.5136 11.8429 17.123C11.8429 17.7323 11.8519 18.124 11.8697 18.2981C11.8697 18.9249 11.8429 19.3254 11.7895 19.4995C11.736 19.6736 11.5934 19.7606 11.3617 19.7606C11.0588 19.778 10.9073 19.6039 10.9073 19.2383C10.9073 18.8379 10.7825 18.3765 10.533 17.8542C10.0162 16.8444 8.92899 16.2786 7.27151 16.1567H6.62991V19.6561C6.64773 20.1262 6.65664 20.7095 6.65664 21.4059C6.67446 22.4679 6.7012 23.1034 6.73684 23.3123C6.77249 23.5212 6.89724 23.7214 7.11111 23.9129C7.16458 23.9478 7.20022 23.9739 7.21805 23.9913H8.52799C9.75773 23.9913 10.8092 23.8607 11.6825 23.5996C13.8569 22.8509 15.2203 21.728 15.7728 20.2307C15.8262 19.8128 16.0045 19.6039 16.3074 19.6039C16.4322 19.6039 16.5391 19.6561 16.6282 19.7606C16.7173 19.8651 16.7708 19.9869 16.7886 20.1262C16.753 20.161 16.6104 20.9271 16.3609 22.4244C16.1114 23.9216 15.9332 24.7225 15.8262 24.827L15.7193 24.9314H0.320802C0.106934 24.827 0 24.679 0 24.4875C0 24.1567 0.347536 23.9913 1.04261 23.9913C1.77332 23.9391 2.18324 23.7911 2.27235 23.5473C2.36146 23.408 2.40602 20.8923 2.40602 16C2.40602 11.1077 2.36146 8.57455 2.27235 8.40045C2.16541 8.17412 1.7555 8.03484 1.04261 7.9826C0.347536 7.9826 0 7.82591 0 7.51253ZM3.34169 16C3.34169 19.6561 3.33278 21.8498 3.31495 22.5811C3.29713 23.3123 3.24366 23.765 3.15455 23.9391C3.13673 23.9565 3.12782 23.9739 3.12782 23.9913H5.96157C5.92593 23.8868 5.89028 23.7737 5.85464 23.6518L5.72097 23.3123V8.63549L5.85464 8.3221L5.96157 7.9826H3.12782C3.18129 8.10448 3.21693 8.19153 3.23475 8.24376C3.25258 8.29599 3.2704 8.60067 3.28822 9.15779C3.30604 9.71492 3.32387 10.4636 3.34169 11.4037C3.35951 12.3439 3.35951 13.876 3.34169 16ZM14.5698 9.15779V7.9826H13.1529C13.1529 8.01743 13.2509 8.09577 13.447 8.21764C13.6608 8.30469 13.9014 8.4788 14.1688 8.73995L14.5698 9.15779ZM10.9073 16.6268V14.5375L10.533 14.9032C10.3191 15.1295 10.0874 15.3036 9.83793 15.4255L9.46366 15.6344C9.58842 15.7214 9.73099 15.7998 9.8914 15.8694C10.2122 16.0958 10.4528 16.2524 10.6132 16.3395L10.9073 16.6268ZM15.2381 23.3123L15.345 22.6072C15.3272 22.6072 15.2916 22.6507 15.2381 22.7377C14.7925 23.1208 14.2935 23.4429 13.741 23.704L13.34 23.9391L14.1688 23.9913H15.1044C15.1044 23.9739 15.1133 23.9391 15.1312 23.8868C15.149 23.8346 15.1668 23.7475 15.1846 23.6257C15.2025 23.5038 15.2203 23.3993 15.2381 23.3123Z" fill="black"/>
<path d="M18.6065 23.704H18.9808C19.6759 23.704 20.0947 23.5821 20.2373 23.3384V23.1295C20.2373 22.9728 20.2373 22.7726 20.2373 22.5288C20.2373 22.2851 20.2373 22.0152 20.2373 21.7192C20.2373 21.4233 20.2462 21.0838 20.264 20.7007C20.2818 20.3177 20.2818 19.9521 20.264 19.6039C20.264 19.0642 20.264 18.4897 20.264 17.8803C20.264 17.2709 20.2551 16.7573 20.2373 16.3395V15.7388C20.1838 15.408 20.059 15.1904 19.863 15.086C19.6669 14.9815 19.2659 14.9032 18.66 14.8509H18.1788V14.2503C18.1788 13.8498 18.1966 13.6496 18.2323 13.6496L18.4996 13.6235C18.6778 13.6061 18.9273 13.5887 19.2481 13.5713C19.5689 13.5539 19.8986 13.5365 20.2373 13.519C20.5402 13.5016 20.861 13.4842 21.1997 13.4668C21.5383 13.4494 21.7967 13.4233 21.9749 13.3885C22.1532 13.3536 22.2512 13.3449 22.269 13.3623H22.3492V14.407C22.3492 15.0685 22.3581 15.3993 22.3759 15.3993C22.3938 15.3993 22.4383 15.3558 22.5096 15.2688C22.5809 15.1817 22.6878 15.0511 22.8304 14.877C22.973 14.7029 23.1423 14.5462 23.3383 14.407C23.5344 14.2677 23.7928 14.1023 24.1136 13.9108C24.4344 13.7193 24.773 13.58 25.1295 13.4929C25.4859 13.4059 25.9404 13.3623 26.4929 13.3623C28.5246 13.432 29.6564 14.4157 29.8881 16.3134C29.9059 16.4352 29.9148 17.6453 29.9148 19.9434V22.1893C29.9148 22.8509 29.9326 23.2426 29.9683 23.3645C30.0039 23.4864 30.1019 23.5734 30.2623 23.6257C30.6366 23.6779 31.0732 23.704 31.5723 23.704H32V24.9053H31.7861L31.1445 24.8792C30.7346 24.8618 30.2891 24.8531 29.8079 24.8531C29.3267 24.8531 28.988 24.8444 28.792 24.827C26.9563 24.827 25.9582 24.8531 25.7978 24.9053H25.584V23.704H26.0117C27.0989 23.704 27.6424 23.5647 27.6424 23.2862C27.6603 23.2513 27.6692 22.05 27.6692 19.6823C27.6514 17.3319 27.6335 16.087 27.6157 15.9478C27.5088 15.4603 27.3306 15.0947 27.081 14.8509C26.8315 14.6072 26.6177 14.4592 26.4394 14.407C26.2612 14.3547 26.0295 14.3373 25.7444 14.3547C24.9424 14.3547 24.2384 14.6507 23.6324 15.2427C23.1512 15.7127 22.8482 16.1915 22.7235 16.679C22.5987 17.1665 22.5274 17.889 22.5096 18.8466V20.5179V22.0849C22.5096 22.6072 22.5185 22.9554 22.5363 23.1295C22.5542 23.3036 22.5809 23.4167 22.6165 23.469C22.6522 23.5212 22.7324 23.5734 22.8571 23.6257C23.2314 23.6779 23.6681 23.704 24.1671 23.704H24.5948V24.9053H24.381L23.7661 24.8792C23.3383 24.8618 22.8839 24.8531 22.4027 24.8531C21.9215 24.8531 21.5828 24.8444 21.3868 24.827C19.5511 24.827 18.5531 24.8531 18.3927 24.9053H18.1788V23.704H18.6065Z" fill="black"/>
</svg>
